<svg xmlns="http://www.w3.org/2000/svg" width="24" height="24" viewBox="0 0 24 24">
    <defs>
        <filter id="tb7chp8c6a">
            <feColorMatrix in="SourceGraphic" values="0 0 0 0 0.466667 0 0 0 0 0.466667 0 0 0 0 0.466667 0 0 0 1.000000 0"/>
        </filter>
    </defs>
    <g fill="none" fill-rule="evenodd">
        <g filter="url(#tb7chp8c6a)" transform="translate(-555 -429)">
            <g>
                <path d="M0 0L24 0 24 24 0 24z" transform="translate(555 429)"/>
                <path fill="#000" fill-rule="nonzero" d="M20 4H4c-1.1 0-1.99.9-1.99 2L2 18c0 1.1.9 2 2 2h16c1.1 0 2-.9 2-2V6c0-1.1-.9-2-2-2zm0 14H4V8l8 5 8-5v10zm-8-7L4 6h16l-8 5z" transform="translate(555 429)"/>
            </g>
        </g>
    </g>
</svg>
